<?xml version="1.0" encoding="utf-8"?>
<!-- Generator: Adobe Illustrator 22.0.1, SVG Export Plug-In . SVG Version: 6.00 Build 0)  -->
<svg version="1.1" id="Layer_1" xmlns="http://www.w3.org/2000/svg" xmlns:xlink="http://www.w3.org/1999/xlink" x="0px" y="0px"
	 viewBox="0 0 50 50" style="enable-background:new 0 0 50 50;" xml:space="preserve">
<style type="text/css">
	.st0{fill:url(#SVGID_1_);}
	.st1{fill:#FFFFFF;}
</style>
<g>
	<g>
		<linearGradient id="SVGID_1_" gradientUnits="userSpaceOnUse" x1="31.8759" y1="2.5091" x2="18.1238" y2="47.4903">
			<stop  offset="0" style="stop-color:#D61395"/>
			<stop  offset="0.2656" style="stop-color:#BB1089"/>
			<stop  offset="0.8337" style="stop-color:#760769"/>
			<stop  offset="0.9987" style="stop-color:#61045F"/>
		</linearGradient>
		<path class="st0" d="M25,48.5C12,48.5,1.5,38,1.5,25S12,1.5,25,1.5S48.5,12,48.5,25S38,48.5,25,48.5z"/>
		<path class="st1" d="M25,2c12.7,0,23,10.3,23,23S37.7,48,25,48S2,37.7,2,25S12.3,2,25,2 M25,1C11.8,1,1,11.8,1,25s10.7,24,24,24
			s24-10.7,24-24S38.2,1,25,1L25,1z"/>
	</g>
	<g>
		<path class="st1" d="M24.3,26.2c-0.4-0.4-0.4-1.2,0-1.6c0.4-0.4,1.2-0.4,1.6,0c3.4,3.4,8.7,3.7,12.4,0.9c0.2-0.9,0.3-1.8,0.3-2.8
			c0-1.2-0.2-2.3-0.4-3.4c-0.3,0.8-1.1,1.3-2,1.3c-1.2,0-2.2-1-2.2-2.2c0-1.2,1-2.2,2.2-2.2c0.3,0,0.6,0.1,0.9,0.2
			c-2.3-4.3-6.8-7.2-12-7.2c-7.5,0-13.6,6.1-13.6,13.6c0,6.8,5,12.5,11.6,13.4L21.7,39c-0.7,2.4,0.8,3.3,2.7,1.7l9.6-7.7L34,33
			c1.3-1.2,2.4-2.6,3.2-4.2C32.9,30.6,27.8,29.7,24.3,26.2z M27.6,16.3c1.2,0,2.2,1,2.2,2.2c0,1.2-1,2.2-2.2,2.2
			c-1.2,0-2.2-1-2.2-2.2C25.4,17.2,26.4,16.3,27.6,16.3z"/>
	</g>
</g>
</svg>
